<?xml version="1.0" encoding="utf-8"?>
<!-- Generator: Adobe Illustrator 26.5.0, SVG Export Plug-In . SVG Version: 6.00 Build 0)  -->
<svg version="1.1" id="Ebene_1" xmlns="http://www.w3.org/2000/svg" xmlns:xlink="http://www.w3.org/1999/xlink" x="0px" y="0px"
	 viewBox="0 0 338 242" style="enable-background:new 0 0 338 242;" xml:space="preserve">
<style type="text/css">
	.st0{fill:#603917;}
	.st1{fill:#EE3224;}
	.st2{fill:#9F248F;}
	.st3{fill:#0254A6;}
	.st4{fill:#57B947;}
	.st5{fill:#FFF000;}
	.st6{fill:#F57F2A;}
	.st7{fill:#FFFFFF;}
	.st8{fill:#F498C0;}
	.st9{fill:#7CC0EA;}
</style>
<path class="st0" d="M-350-57"/>
<g>
	<g>
		<rect x="0.3" y="0" class="st1" width="337.2" height="40.3"/>
	</g>
	<g>
		<rect x="0.3" y="201.7" class="st2" width="337.2" height="40.3"/>
	</g>
	<g>
		<rect x="0.3" y="161.3" class="st3" width="337.2" height="40.3"/>
	</g>
	<g>
		<rect x="0.3" y="121" class="st4" width="337.2" height="40.3"/>
	</g>
	<g>
		<rect x="0.3" y="80.6" class="st5" width="337.2" height="40.3"/>
	</g>
	<g>
		<rect x="0.3" y="40.3" class="st6" width="337.2" height="40.3"/>
	</g>
	<polygon class="st7" points="0.1,46.1 70.1,120.1 0,193.6 	"/>
	<polygon class="st8" points="0.1,46.1 70.1,120.1 0.3,193.3 0.5,217.6 95.9,120.5 0,23 	"/>
	<polygon class="st9" points="0,23 95.9,120.5 0.3,217.8 0.3,242 120.9,121.5 0.3,0 	"/>
	<polygon class="st0" points="24.6,0.2 146.9,121.5 27.8,242 0.3,242 120.9,121.5 0.3,0 	"/>
	<polygon points="24.6,0.2 146.9,121.5 27.8,242 54.7,242 172.8,121 49.7,0 	"/>
</g>
</svg>
