<?xml version="1.0" encoding="utf-8"?>
<!-- Generator: Adobe Illustrator 26.0.3, SVG Export Plug-In . SVG Version: 6.00 Build 0)  -->
<svg version="1.1" id="Ebene_1" xmlns="http://www.w3.org/2000/svg" xmlns:xlink="http://www.w3.org/1999/xlink" x="0px" y="0px"
	 viewBox="0 0 700 600" style="enable-background:new 0 0 700 600;" xml:space="preserve">
<style type="text/css">
	.st0{fill:#005D63;}
</style>
<g>
	<path class="st0" d="M565.6,66H132.9c-5.2,0-9.5-4.3-9.5-9.5V9.2c0-5.2,4.3-9.5,9.5-9.5h432.7c5.2,0,9.5,4.3,9.5,9.5v47.3
		C575.1,61.7,570.8,66,565.6,66z"/>
	<g>
		<path class="st0" d="M659.3,259.1h-623c-12.5,0-22.7,10.2-22.7,22.7v209.1c0,12.5,10.2,22.7,22.7,22.7h623
			c12.5,0,22.7-10.2,22.7-22.7V281.8C682,269.3,671.8,259.1,659.3,259.1z M141.4,420.7c-26.1,0-47.3-21.2-47.3-47.3
			s21.2-47.3,47.3-47.3s47.3,21.2,47.3,47.3S167.5,420.7,141.4,420.7z M441.5,437.1c0,12.5-10.2,22.7-22.7,22.7H271.1
			c-12.5,0-22.7-10.2-22.7-22.7v-17c0-12.5,10.2-22.7,22.7-22.7h147.7c12.5,0,22.7,10.2,22.7,22.7V437.1z M538.1,419.1
			c-26.1,0-47.3-21.2-47.3-47.3s21.2-47.3,47.3-47.3c26.1,0,47.3,21.2,47.3,47.3S564.2,419.1,538.1,419.1z"/>
		<path class="st0" d="M672.5,417.8h-91.2c-5.2,0-9.5,4.3-9.5,9.5V588c0,5.2,4.3,9.5,9.5,9.5h91.2c5.2,0,9.5-4.3,9.5-9.5V427.3
			C682,422.1,677.7,417.8,672.5,417.8z"/>
		<path class="st0" d="M114.3,419.3H23c-5.2,0-9.5,4.3-9.5,9.5v160.7c0,5.2,4.3,9.5,9.5,9.5h91.2c5.2,0,9.5-4.3,9.5-9.5V428.8
			C123.7,423.6,119.5,419.3,114.3,419.3z"/>
	</g>
	<polygon class="st0" points="28.7,262.9 77.9,208 123.4,12.9 180.2,62.2 146.1,208 557,208 526.7,60.3 575.1,12.9 622.8,204.9 
		666.9,262.9 	"/>
	<path class="st0" d="M629.9,211.8c-10.9,0-19.9-8.9-19.9-19.9c2.4-17.5-10-65.6,19.9-65.3c10.9,0,19.9,8.9,19.9,19.9
		C647.4,164,659.8,212,629.9,211.8z"/>
	<path class="st0" d="M72.3,211.8c-10.9,0-19.9-8.9-19.9-19.9c2.4-17.5-10-65.6,19.9-65.3c10.9,0,19.9,8.9,19.9,19.9
		C89.8,164,102.1,212,72.3,211.8z"/>
</g>
</svg>
