<?xml version="1.0" encoding="utf-8"?>
<!-- Generator: Adobe Illustrator 26.0.3, SVG Export Plug-In . SVG Version: 6.00 Build 0)  -->
<svg version="1.1" id="Ebene_1" xmlns="http://www.w3.org/2000/svg" xmlns:xlink="http://www.w3.org/1999/xlink" x="0px" y="0px"
	 viewBox="0 0 700 600" style="enable-background:new 0 0 700 600;" xml:space="preserve">
<style type="text/css">
	.st0{fill:#005D63;}
</style>
<g>
	<path class="st0" d="M443.1,117c1.2,0,2.4,0,3.5,0c1.1,0.4,2.2,0.8,3.3,1c28.5,5.9,52.5,19,69.1,43.5
		c10.5,15.5,17.6,32.3,14.1,51.8c-1.9,10.5-4.1,21-6.1,31.6c6.5,2.7,8.9,5.5,8.7,13.5c-0.3,11.9-0.9,23.8-2.2,35.6
		c-1.1,10.6-4.5,13.6-15.2,16c-0.1,0.9-0.2,1.9-0.3,2.9c-1,19.8-7,37.4-22.2,51.1c-1,0.9-1.6,2.8-1.6,4.2c-0.1,14.1,0,28.3-0.1,42.4
		c0,2.9,1.1,4.2,3.6,5.2c6.7,2.6,13.3,5.4,20.1,8c16.1,6.1,32.3,11.7,48.3,18.1c11,4.4,21.6,9.7,33.7,11.3
		c17.9,2.4,34.5,8.2,48.9,19.6c23.8,19,36.3,44.6,42.7,73.6c1.5,7,2.5,14.1,3.7,21.2c0,3.2,0,6.5,0,9.7c-0.3,0.5-0.7,1-0.8,1.5
		c-3.5,11.3-13.2,18.6-25,18.6c-151.9,0-303.8,0-455.7,0c-15.7,0-27.4-12.1-25.4-27.7c1.7-13.2,3.9-26.5,7.8-39.2
		c9-29,25.9-52.5,53.4-66.8c10.3-5.3,21.4-8.9,32.4-12.6c18.1-6,36.8-10.2,54.2-18.5c16.3-7.8,33-14.9,51-18.1
		c2.7-0.5,2.6-2.2,2.6-4.2c0-10.6-0.4-21.2,0.1-31.8c0.4-8.4-0.5-16-6.7-22.3c-0.7-0.7-1.1-1.7-1.6-2.6c-7.5-12.6-12.3-26.3-16-40.4
		c-0.4-1.5-1.9-3.4-3.2-3.8c-7.9-2-11.8-5.1-12.7-13.2c-1.3-12.1-2.1-24.3-2.7-36.5c-0.3-6.9,1.2-13.3,9.5-15.1
		c-1.3-4.8-3.1-9.1-3.7-13.5c-1.6-11.5-4.5-23.2-3.5-34.5c1.5-15.9,8.5-30.5,18.8-43.1c14.1-17.3,33-26.6,54.1-32
		C429,119.8,436.1,118.5,443.1,117z"/>
	<path class="st0" d="M187.7,429.7c-16.7,3.1-31.5,10-45.6,18.3c-11.5,6.8-23.9,10.5-36.9,12.7c-11,1.9-21.6,3.6-30.7,11
		c-4.6,3.7-10.1,6.4-15.5,9.1C48.6,486.2,39.2,493,31.6,502c-19.2,22.6-26.8,49.6-28.4,78.6c-0.2,2.8,2.1,6.5,4.3,8.6
		c6,5.5,13.3,8.4,21.7,8.3c48.5,0,97,0,145.4,0c1.3,0,2.7,0,5.2,0c-12-4.6-16.7-10.6-16.3-22.2c0.3-9.5,1.1-19.1,2.7-28.5
		c3.7-22.4,11.3-43.4,23.7-62.6c19.1-29.5,49.2-42.2,80.3-53.5c2.8-1,6.1-0.7,9.2-1c1.4-0.1,2.8-0.1,4.6-0.2c0-10,0.2-19.6-0.1-29.1
		c-0.2-6.2,1.1-11.4,4.8-16.7c9.8-14.1,14.8-30.3,18.7-46.8c0.3-1.3,1.4-3.1,2.5-3.4c3.9-1.3,5.1-4.3,5.5-7.8
		c1.5-13.4,2.9-26.9,4.1-40.3c0.2-2.3-0.8-4.8-1.4-7.2c-0.5-1.8-1.9-3.6-1.9-5.4c-0.2-13.7,0-27.4-0.1-41.1c0-4.1-0.3-8.3-1.2-12.3
		c-4.7-20.8-18.2-34.5-36.7-43.8c-20.1-10-41.5-11.5-63.3-7.9c-28.9,4.7-50.2,19.8-62.3,47c-4.1,9.2-6.1,18.3-2.5,28.1
		c0.9,2.6,1.4,5.4,1.9,8.2c1.5,8.5,2.9,17,4.4,25.3c-8.7,2.8-10.6,5-10.3,13.4c0.3,8.4,1,16.7,2.1,25c1,7.8,3.4,15.3,12,17.9
		c3.2,1,4,2.5,4.6,5.3c4.2,18.2,10.3,35.6,21.6,50.7c0.7,0.9,1.2,2.1,1.2,3.2C187.8,404.3,187.7,416.8,187.7,429.7z"/>
	<path class="st0" d="M187.7,429.7c0-13,0-25.5-0.1-38c0-1.1-0.6-2.3-1.2-3.2c-11.4-15.1-17.4-32.5-21.6-50.7
		c-0.6-2.8-1.5-4.4-4.6-5.3c-8.6-2.6-11-10.1-12-17.9c-1.1-8.3-1.8-16.7-2.1-25c-0.3-8.4,1.6-10.6,10.3-13.4
		c-1.4-8.3-2.9-16.8-4.4-25.3c-0.5-2.7-0.9-5.5-1.9-8.2c-3.5-9.8-1.6-18.9,2.5-28.1c12.1-27.2,33.3-42.3,62.3-47
		c21.8-3.5,43.2-2.1,63.3,7.9c18.5,9.2,32,22.9,36.7,43.8c0.9,4,1.1,8.2,1.2,12.3c0.1,13.7,0,27.4,0.1,41.1c0,1.8,1.4,3.5,1.9,5.4
		c0.6,2.4,1.6,4.8,1.4,7.2c-1.2,13.5-2.6,26.9-4.1,40.3c-0.4,3.5-1.6,6.5-5.5,7.8c-1.1,0.4-2.2,2.1-2.5,3.4
		c-3.9,16.5-8.9,32.7-18.7,46.8c-3.7,5.3-5.1,10.5-4.8,16.7c0.3,9.5,0.1,19.1,0.1,29.1c-1.8,0.1-3.2,0.1-4.6,0.2
		c-3.1,0.3-6.4,0-9.2,1c-31.1,11.4-61.2,24.1-80.3,53.5c-12.4,19.2-20,40.2-23.7,62.6c-1.5,9.4-2.4,19-2.7,28.5
		c-0.3,11.6,4.3,17.6,16.3,22.2c-2.6,0-3.9,0-5.2,0c-48.5,0-97,0-145.4,0c-8.4,0-15.7-2.9-21.7-8.3c-2.3-2.1-4.5-5.7-4.3-8.6
		c1.6-29,9.2-55.9,28.4-78.6c7.6-9,17-15.8,27.5-21.1c5.4-2.7,10.9-5.4,15.5-9.1c9.1-7.3,19.7-9.1,30.7-11
		c12.9-2.2,25.3-5.9,36.9-12.7C156.2,439.7,171,432.9,187.7,429.7z"/>
</g>
</svg>
