<?xml version="1.0" encoding="utf-8"?>
<!-- Generator: Adobe Illustrator 26.0.3, SVG Export Plug-In . SVG Version: 6.00 Build 0)  -->
<svg version="1.1" id="Ebene_1" xmlns="http://www.w3.org/2000/svg" xmlns:xlink="http://www.w3.org/1999/xlink" x="0px" y="0px"
	 viewBox="0 0 700 600" style="enable-background:new 0 0 700 600;" xml:space="preserve">
<style type="text/css">
	.st0{fill-rule:evenodd;clip-rule:evenodd;fill:#005D63;}
</style>
<path class="st0" d="M350.3,239.6L350.3,239.6c-27.7,0-56.4,28.7-56.4,56.4c0,34.7,28.7,55.4,56.4,55.4c27.7,0,56.4-20.8,56.4-55.4
	C406.7,268.3,378,239.6,350.3,239.6z M350.3,407.9L350.3,407.9c-63.3,0-111.8-48.5-111.8-111.9c0-63.4,48.5-111.9,111.8-111.9
	c63.3,0,111.8,48.5,111.8,111.9C462.1,359.4,413.6,407.9,350.3,407.9z M350.3,127.7L350.3,127.7c-91,0-168.2,77.2-168.2,168.3
	c0,98,77.2,168.3,168.2,168.3c91,0,168.2-70.3,168.2-168.3C518.5,205,441.3,127.7,350.3,127.7z M567,359.4L567,359.4
	c0,20.8-6.9,34.7-20.8,48.5c0,6.9,48.5,63.4,20.8,91.1c-13.9,20.8-13.9,20.8-13.9,20.8c-20.8,20.8-77.2-13.9-91-27.7
	c-13.9,13.9-34.6,20.8-55.4,27.7c6.9,0,6.9,0,6.9,0S399.8,597,357.2,597c-13.9,0-13.9,0-13.9,0c-34.6,0-49.5-70.3-56.4-84.2
	c-13.9,0-34.6-6.9-48.5-20.8c0,6.9,0,6.9,0,6.9s-63.3,48.5-91,13.9c-13.9-6.9-13.9-6.9-13.9-6.9c-20.8-27.7,13.9-84.2,20.8-98
	c-6.9-13.9-13.9-27.7-20.8-48.5c-13.9,0-84.1-21.8-84.1-56.4c0-13.9,0-13.9,0-13.9c0-34.7,70.2-49.5,84.1-49.5
	c6.9-20.8,13.9-34.7,20.8-55.4c-6.9-6.9-48.5-70.3-20.8-91.1c13.9-13.9,13.9-13.9,13.9-13.9c20.8-27.7,77.2,13.9,91,20.8
	c13.9-6.9,34.6-13.9,48.5-20.8C293.9,65.4,315.7,2,343.4,2c13.9,0,13.9,0,13.9,0c34.6,0,49.5,56.4,56.4,77.2
	c13.9,6.9,34.6,13.9,48.5,20.8c13.9-6.9,70.2-41.6,91-20.8C567,93.1,567,93.1,567,93.1c27.7,27.7-6.9,77.2-20.8,91.1
	c13.9,20.8,20.8,34.7,20.8,55.4c6.9,0,84.1,7.9,84.1,49.5c0,13.9,0,13.9,0,13.9C651.1,337.6,587.8,351.5,567,359.4z"/>
</svg>
