<?xml version="1.0" encoding="utf-8"?>
<!-- Generator: Adobe Illustrator 26.0.3, SVG Export Plug-In . SVG Version: 6.00 Build 0)  -->
<svg version="1.1" id="Ebene_1" xmlns="http://www.w3.org/2000/svg" xmlns:xlink="http://www.w3.org/1999/xlink" x="0px" y="0px"
	 viewBox="0 0 700 600" style="enable-background:new 0 0 700 600;" xml:space="preserve">
<style type="text/css">
	.st0{fill:#005D63;}
</style>
<g>
	<path class="st0" d="M554.4,593c-135,0-269.9,0-404.9,0c-1.1-0.3-2.2-0.7-3.4-0.8c-22.8-2.5-40.1-17.5-45.7-39.7
		c-0.9-3.6-1.6-7.3-2.4-10.9c0-156.8,0-313.7,0-470.5c0.3-1,0.7-1.9,0.8-2.9c1.5-12.6,5.5-24.3,12.6-34.8
		C122.7,16.6,138,7.8,158.6,7.9C288.1,8,417.5,7.9,547,7.9c15,0,27.7,5.3,38,16.1c14.4,15.2,20.7,33.7,20.7,54.3
		c0.1,150.8,0.1,301.6,0,452.5c0,4.8-0.3,9.6-0.8,14.4c-2.3,22.1-17.6,39.8-39.2,45.4C562,591.5,558.2,592.2,554.4,593z M155.4,77.9
		c-0.1,1.6-0.2,3-0.2,4.5c0,149.4,0,298.8-0.1,448.2c0,3.8,1.2,4.7,4.9,4.7c127.9-0.1,255.8-0.1,383.8,0c4.1,0,4.9-1.2,4.9-5.1
		c-0.1-149.3-0.1-298.5-0.1-447.8c0-1.5-0.2-3-0.3-4.5C417.2,77.9,286.5,77.9,155.4,77.9z"/>
	<path class="st0" d="M387,266.6c1.6,0,3,0,4.4,0c27.6,0,55.1-0.1,82.7,0.1c3.9,0,5.1-0.9,5-4.9C479,222,479,182.2,479,142.4
		c0-1.5-0.2-3-0.3-4.7c-30.8,0-61.2,0-91.8,0C387,180.7,387,223.4,387,266.6z M225.5,429.3c-0.3,0.9-0.5,1.2-0.5,1.6
		c0,10.4,0,20.8-0.1,31.2c0,2.8,1.9,2.6,3.7,2.6c82.2,0,164.3,0,246.5,0.1c3.2,0,4-1.1,3.9-4.1c-0.1-8.8-0.2-17.7,0-26.5
		c0.1-3.9-1-5-5-5c-81.4,0.1-162.8,0.1-244.2,0.1C228.5,429.3,227.1,429.3,225.5,429.3z M225.2,137.7c-0.1,1.5-0.3,2.7-0.3,4
		c0,20.3,0.1,40.6-0.1,60.9c0,3.6,1.2,4.6,4.7,4.6c39-0.1,78-0.1,117,0c3.6,0,4.7-1.1,4.6-4.7c-0.1-20.3-0.1-40.6-0.1-60.9
		c0-1.3-0.2-2.5-0.3-3.9C308.8,137.7,267.1,137.7,225.2,137.7z M386.2,301.6c-53.9,0-107.4,0-161.1,0c-0.1,1.4-0.3,2.5-0.3,3.7
		c0,9,0.1,17.9-0.1,26.9c-0.1,3.6,1.2,4.3,4.5,4.3c50.9-0.1,101.9-0.1,152.8-0.1c1.4,0,2.7-0.2,4.1-0.3
		C386.2,324.3,386.2,313.1,386.2,301.6z M317.7,371.6c0,11.7,0,23,0,34.5c53.8,0,107.3,0,161.3,0c0-10.2-0.2-20,0.1-29.9
		c0.1-4-1.1-5-5-4.9c-50.7,0.1-101.3,0.1-152,0.1C320.7,371.4,319.3,371.5,317.7,371.6z M287.9,241.9c-19.7,0-39.5,0-59.2-0.1
		c-2.8,0-4,0.7-3.9,3.7c0.2,5.8,0.1,11.7,0,17.5c-0.1,2.6,0.8,3.6,3.6,3.6c39.7-0.1,79.5-0.1,119.2,0c2.9,0,3.5-1.1,3.5-3.7
		c-0.1-5.6-0.2-11.2,0-16.8c0.1-3.4-0.9-4.4-4.4-4.4C327.1,242,307.5,241.9,287.9,241.9z M422.2,301.5c0,11.7,0,23.1,0,34.4
		c0.6,0.2,1,0.4,1.4,0.4c17.5,0,35.1,0,52.6,0.1c2.7,0,2.8-1.6,2.8-3.6c0-8.3,0-16.6,0-25c0-2,0-4.1,0-6.4
		C459.8,301.5,441.1,301.5,422.2,301.5z M281.8,371.8c-0.7-0.1-1.2-0.3-1.7-0.3c-17.4,0-34.8,0-52.2-0.1c-2.6,0-3,1.3-3,3.4
		c0,9.5,0.1,19,0,28.5c0,2.6,1,3.3,3.5,3.3c17.2-0.1,34.3,0,51.5-0.1c0.6,0,1.2-0.1,2-0.2C281.8,394.7,281.8,383.4,281.8,371.8z"/>
	<path class="st0" d="M387,266.6c0-43.2,0-85.9,0-128.9c30.5,0,61,0,91.8,0c0.1,1.7,0.3,3.2,0.3,4.7c0,39.8,0,79.6,0.1,119.3
		c0,4-1.1,5-5,4.9c-27.6-0.2-55.1-0.1-82.7-0.1C390,266.6,388.6,266.6,387,266.6z"/>
	<path class="st0" d="M225.5,429.3c1.6,0,3,0,4.4,0c81.4,0,162.8,0,244.2-0.1c4,0,5.1,1,5,5c-0.3,8.8-0.2,17.7,0,26.5
		c0,2.9-0.7,4.1-3.9,4.1c-82.2-0.1-164.3-0.1-246.5-0.1c-1.9,0-3.7,0.2-3.7-2.6c0.1-10.4,0.1-20.8,0.1-31.2
		C225,430.6,225.2,430.2,225.5,429.3z"/>
	<path class="st0" d="M225.2,137.7c42,0,83.6,0,125.6,0c0.1,1.4,0.3,2.7,0.3,3.9c0,20.3-0.1,40.6,0.1,60.9c0,3.5-1,4.7-4.6,4.7
		c-39-0.1-78-0.1-117,0c-3.5,0-4.7-1-4.7-4.6c0.2-20.3,0.1-40.6,0.1-60.9C224.9,140.4,225.1,139.1,225.2,137.7z"/>
	<path class="st0" d="M386.2,301.6c0,11.5,0,22.8,0,34.5c-1.4,0.1-2.7,0.3-4.1,0.3c-50.9,0-101.9,0-152.8,0.1
		c-3.3,0-4.6-0.7-4.5-4.3c0.2-9,0.1-17.9,0.1-26.9c0-1.1,0.2-2.3,0.3-3.7C278.8,301.6,332.3,301.6,386.2,301.6z"/>
	<path class="st0" d="M317.7,371.6c1.6-0.1,3-0.2,4.4-0.2c50.7,0,101.3,0,152-0.1c3.9,0,5.2,0.9,5,4.9c-0.3,9.8-0.1,19.7-0.1,29.9
		c-54,0-107.5,0-161.3,0C317.7,394.6,317.7,383.3,317.7,371.6z"/>
	<path class="st0" d="M287.9,241.9c19.6,0,39.2,0.1,58.8-0.1c3.5,0,4.5,1,4.4,4.4c-0.2,5.6-0.1,11.2,0,16.8c0.1,2.6-0.6,3.7-3.5,3.7
		c-39.7-0.1-79.5-0.1-119.2,0c-2.8,0-3.6-0.9-3.6-3.6c0.1-5.8,0.2-11.7,0-17.5c-0.1-3,1.1-3.7,3.9-3.7
		C248.5,241.9,268.2,241.9,287.9,241.9z"/>
	<path class="st0" d="M422.2,301.5c18.9,0,37.6,0,56.8,0c0,2.3,0,4.3,0,6.4c0,8.3,0,16.6,0,25c0,2-0.1,3.6-2.8,3.6
		c-17.5-0.1-35.1-0.1-52.6-0.1c-0.4,0-0.7-0.2-1.4-0.4C422.2,324.6,422.2,313.2,422.2,301.5z"/>
	<path class="st0" d="M281.8,371.8c0,11.7,0,22.9,0,34.4c-0.8,0.1-1.4,0.2-2,0.2c-17.2,0-34.3,0-51.5,0.1c-2.5,0-3.5-0.7-3.5-3.3
		c0.1-9.5,0.1-19,0-28.5c0-2.1,0.4-3.4,3-3.4c17.4,0.1,34.8,0.1,52.2,0.1C280.6,371.4,281.1,371.6,281.8,371.8z"/>
</g>
</svg>
